<svg width="21" height="21" viewBox="0 0 21 21" fill="none" xmlns="http://www.w3.org/2000/svg">
<path fill-rule="evenodd" clip-rule="evenodd" d="M14.1705 2.11529C13.0067 1.88378 11.8003 2.0026 10.7039 2.45673C9.60754 2.91085 8.67047 3.67989 8.01118 4.66658C7.35189 5.65328 7 6.81331 7 8V8.00282C6.99713 8.76612 7.1439 9.52257 7.43202 10.2294C7.54594 10.5089 7.48124 10.8294 7.26783 11.0428L1.75 16.5607V19.25H4V17.75C4 17.3358 4.33579 17 4.75 17H6.25V15.5C6.25 15.0858 6.58579 14.75 7 14.75H8.93934L9.95717 13.7322L10.4875 14.2625L10.7706 13.568C11.4774 13.8561 12.2339 14.0029 12.9972 14L13 14C14.1867 14 15.3467 13.6481 16.3334 12.9888C17.3201 12.3295 18.0892 11.3925 18.5433 10.2961C18.9974 9.19975 19.1162 7.99335 18.8847 6.82946C18.6532 5.66558 18.0818 4.59648 17.2426 3.75736C16.4035 2.91825 15.3344 2.3468 14.1705 2.11529ZM10.679 15.1317L9.78033 16.0303C9.63968 16.171 9.44891 16.25 9.25 16.25H7.75V17.75C7.75 18.1642 7.41421 18.5 7 18.5H5.5V20C5.5 20.4142 5.16421 20.75 4.75 20.75H1C0.585786 20.75 0.25 20.4142 0.25 20V16.25C0.25 16.0511 0.329018 15.8603 0.46967 15.7197L5.86834 10.321C5.62191 9.57274 5.49718 8.7886 5.5 7.99861C5.50027 6.51574 5.94012 5.06621 6.76398 3.83323C7.58809 2.59986 8.75943 1.63856 10.1299 1.07091C11.5003 0.50325 13.0083 0.354725 14.4632 0.644114C15.918 0.933503 17.2544 1.64781 18.3033 2.6967C19.3522 3.7456 20.0665 5.08197 20.3559 6.53683C20.6453 7.99168 20.4968 9.49968 19.9291 10.8701C19.3614 12.2406 18.4001 13.4119 17.1668 14.236C15.9338 15.0599 14.4843 15.4997 13.0014 15.5C13.0009 15.5 13.0005 15.5 13 15.5V14.75L13.0028 15.5C13.0023 15.5 13.0019 15.5 13.0014 15.5C12.2114 15.5028 11.4273 15.3781 10.679 15.1317Z" fill="#7C7C8A"/>
<path d="M14.875 7.25C15.4963 7.25 16 6.74632 16 6.125C16 5.50368 15.4963 5 14.875 5C14.2537 5 13.75 5.50368 13.75 6.125C13.75 6.74632 14.2537 7.25 14.875 7.25Z" fill="#7C7C8A"/>
</svg>
