<svg width="20" height="16" viewBox="0 0 20 16" fill="none" xmlns="http://www.w3.org/2000/svg">
<path fill-rule="evenodd" clip-rule="evenodd" d="M0.447139 0.743211C0.727033 0.437872 1.20146 0.417245 1.5068 0.697139L10 8.48258L18.4932 0.697139C18.7985 0.417245 19.273 0.437872 19.5529 0.743211C19.8328 1.04855 19.8121 1.52298 19.5068 1.80287L10.5068 10.0529C10.2201 10.3157 9.77995 10.3157 9.49321 10.0529L0.493211 1.80287C0.187872 1.52298 0.167245 1.04855 0.447139 0.743211Z" fill="#7C7C8A"/>
<path fill-rule="evenodd" clip-rule="evenodd" d="M0.250004 1.25C0.250004 0.835791 0.585791 0.500004 1 0.500004H19C19.4142 0.500004 19.75 0.835791 19.75 1.25V14C19.75 14.3978 19.592 14.7794 19.3107 15.0607C19.0294 15.342 18.6478 15.5 18.25 15.5H1.75C1.35218 15.5 0.97065 15.342 0.689344 15.0607C0.40804 14.7794 0.250004 14.3978 0.250004 14V1.25ZM1.75 2V14H18.25V2H1.75Z" fill="#7C7C8A"/>
<path fill-rule="evenodd" clip-rule="evenodd" d="M8.91212 7.49308C9.19209 7.79835 9.17158 8.27278 8.8663 8.55275L1.7413 15.0871C1.43603 15.3671 0.961602 15.3466 0.681634 15.0413C0.401667 14.736 0.422182 14.2616 0.727454 13.9816L7.85245 7.44726C8.15773 7.16729 8.63216 7.18781 8.91212 7.49308Z" fill="#7C7C8A"/>
<path fill-rule="evenodd" clip-rule="evenodd" d="M11.0879 7.49308C11.3679 7.18781 11.8423 7.16729 12.1476 7.44726L19.2726 13.9816C19.5778 14.2616 19.5983 14.736 19.3184 15.0413C19.0384 15.3466 18.564 15.3671 18.2587 15.0871L11.1337 8.55275C10.8284 8.27278 10.8079 7.79835 11.0879 7.49308Z" fill="#7C7C8A"/>
</svg>
