<svg width="150" height="150" viewBox="0 0 150 150" fill="none" xmlns="http://www.w3.org/2000/svg">
<path d="M120.056 120.056C118.403 121.709 117.464 123.787 117.166 125.938L92.3381 101.11L101.111 92.338L125.938 117.166C123.788 117.466 121.709 118.403 120.056 120.056Z" fill="#495BCC"/>
<path d="M124.655 134.994C130.365 134.994 134.994 130.365 134.994 124.655C134.994 118.946 130.365 114.317 124.655 114.317C118.946 114.317 114.317 118.946 114.317 124.655C114.317 130.365 118.946 134.994 124.655 134.994Z" fill="#E61C44"/>
<path d="M100 84.9971L32.5449 17.9236L15 15L17.9255 32.5449L85.3789 99.6183L100 84.9971Z" fill="url(#paint0_linear_37_755)"/>
<path d="M29.944 120.056C31.5971 121.709 32.5364 123.787 32.8343 125.938L57.6619 101.111L48.8895 92.3383L24.0619 117.166C26.2116 117.466 28.2907 118.403 29.944 120.056Z" fill="#495BCC"/>
<path d="M25.3385 134.994C31.0483 134.994 35.6771 130.365 35.6771 124.655C35.6771 118.946 31.0483 114.317 25.3385 114.317C19.6287 114.317 15 118.946 15 124.655C15 130.365 19.6287 134.994 25.3385 134.994Z" fill="#E61C44"/>
<path d="M62.6565 101.967L48.0329 87.3437L117.455 17.9236L135 15L132.077 32.5449L62.6565 101.967Z" fill="url(#paint1_linear_37_755)"/>
<path d="M89.5697 110.04L110.04 89.5698V80.7974H101.268L80.7972 101.268V110.04H89.5697Z" fill="#E61C44"/>
<path d="M60.4304 110.04L39.9601 89.5698V80.7974H48.7325L69.2029 101.268V110.04H60.4304Z" fill="#E61C44"/>
<defs>
<linearGradient id="paint0_linear_37_755" x1="48.6317" y1="41.2566" x2="123.366" y2="126.584" gradientUnits="userSpaceOnUse">
<stop stop-color="white"/>
<stop offset="1" stop-color="#C5C9F7"/>
</linearGradient>
<linearGradient id="paint1_linear_37_755" x1="82.4429" y1="41.9854" x2="135.598" y2="95.1359" gradientUnits="userSpaceOnUse">
<stop stop-color="white"/>
<stop offset="1" stop-color="#C5C9F7"/>
</linearGradient>
</defs>
</svg>
